<?xml version="1.0" encoding="utf-8"?>
<!-- Generator: Adobe Illustrator 19.1.0, SVG Export Plug-In . SVG Version: 6.00 Build 0)  -->
<svg version="1.1" id="圖層_1" xmlns="http://www.w3.org/2000/svg" xmlns:xlink="http://www.w3.org/1999/xlink" x="0px" y="0px"
	 viewBox="0 0 484.5 163.8" style="enable-background:new 0 0 484.5 163.8;" xml:space="preserve">
<style type="text/css">
	.st0{fill:#413D3C;}
	.st1{fill:none;stroke:#231815;stroke-miterlimit:10;}
	.st2{fill:#292929;}
</style>
<path class="st0" d="M65.6,111.9v-3.3V90V36.4h0c0.1-2,0-3.3,0-3.3V0h-3.9l-0.3,32.5c0,0,1.1,22-10.7,22.4
	c-13.9,0.4-12.4-35.5-12.4-35.5L38.4,0H0c0,63.4,33,58.5,49.5,58.6c5.7,0,9.4-2.7,11.8-6.4v56.4h0l0,2.8c0,0,1.1,22-10.7,22.4
	c-13.9,0.4-12.3-22.9-12.3-22.9V90H0c0,50.9,33,46.9,49.6,47C67,137.1,65.6,111.9,65.6,111.9z"/>
<path class="st0" d="M399.5,124.7v-3.3v-18.5V49.2h0c0.1-2,0-3.3,0-3.3v-33h-3.9l-0.3,32.5c0,0,1.1,22-10.7,22.4
	c-13.9,0.4-12.3-22.9-12.3-22.9v-32H334c0,63.4,33,58.5,49.5,58.6c5.7,0,9.4-2.7,11.8-6.4v56.4h0l0,2.8c0,0,1.1,22-10.7,22.4
	c-13.9,0.4-12.3-22.9-12.3-22.9v-20.8H334c0,50.9,33,46.9,49.6,47C401,150,399.5,124.7,399.5,124.7z"/>
<path class="st0" d="M114.1,12.3c-20,0-36.3,16.3-36.3,36.3s16.3,36.3,36.3,36.3c20,0,36.3-16.3,36.3-36.3S134.1,12.3,114.1,12.3z
	 M121.2,83.1c-29.7-40.7-4.2-65.5-0.2-69c16.1,3.2,28.3,17.5,28.3,34.5C149.3,65.6,137.3,79.8,121.2,83.1z"/>
<path class="st0" d="M446.5,21.2c-20.3,0-36.8,16.5-36.8,36.8c0,20.3,16.5,36.8,36.8,36.8c20.3,0,36.8-16.5,36.8-36.8
	C483.3,37.8,466.8,21.2,446.5,21.2z M440,24l-7.5,2.3C434.9,25.3,437.4,24.5,440,24z M446.5,92.8c-0.1,0-0.2,0-0.3,0l5-1.6
	c0.3-0.1,0.4-0.4,0.3-0.7c-0.1-0.3-0.4-0.4-0.7-0.3l-7.7,2.4c-2.4-0.2-4.7-0.7-6.9-1.4l12.7-4c0.3-0.1,0.4-0.4,0.3-0.7
	c-0.1-0.3-0.4-0.4-0.7-0.3l-14.1,4.4c-1.6-0.6-3.1-1.3-4.6-2.1l16.7-5.2c0.3-0.1,0.4-0.4,0.3-0.7c-0.1-0.3-0.4-0.4-0.7-0.3
	l-17.7,5.5c-1.2-0.7-2.4-1.5-3.5-2.4l19.5-6.1c0.3-0.1,0.4-0.4,0.3-0.7c-0.1-0.3-0.4-0.4-0.7-0.3l-20.2,6.3c-1-0.8-1.9-1.7-2.8-2.6
	l21.4-6.7c0.3-0.1,0.4-0.4,0.3-0.7c-0.1-0.3-0.4-0.4-0.7-0.3l-21.9,6.9c-0.8-0.9-1.5-1.8-2.3-2.8l22.9-7.2c0.3-0.1,0.4-0.4,0.3-0.7
	c-0.1-0.3-0.4-0.4-0.7-0.3l-23.3,7.3c-0.6-1-1.2-1.9-1.8-3l24.3-7.6c0.3-0.1,0.4-0.4,0.3-0.7c-0.1-0.3-0.4-0.4-0.7-0.3l-24.4,7.6
	c-0.5-1-1-2-1.4-3.1l25.4-8c0.3-0.1,0.4-0.4,0.3-0.7c-0.1-0.3-0.4-0.4-0.7-0.3l-25.5,8c-0.4-1.1-0.7-2.1-0.9-3.3l26.3-8.2
	c0.3-0.1,0.4-0.4,0.3-0.7c-0.1-0.3-0.4-0.4-0.7-0.3L412.5,65c-0.2-1.1-0.4-2.2-0.5-3.3l27-8.5c0.3-0.1,0.4-0.4,0.3-0.7
	c-0.1-0.3-0.4-0.4-0.7-0.3l-26.8,8.4c-0.1-0.8-0.1-1.7-0.1-2.5c0-0.3,0-0.6,0-1l27.9-8.7c0.3-0.1,0.4-0.4,0.3-0.7
	c-0.1-0.3-0.4-0.4-0.7-0.3L411.9,56c0.1-1.2,0.2-2.5,0.4-3.7l28.7-9c0.3-0.1,0.4-0.4,0.3-0.7c-0.1-0.3-0.4-0.4-0.7-0.3l-28.2,8.8
	c0.3-1.3,0.6-2.6,1-3.8l29.1-9.1c0.3-0.1,0.4-0.4,0.3-0.7c-0.1-0.3-0.4-0.4-0.7-0.3L414,46c0.5-1.4,1.1-2.8,1.8-4.1l29.8-9.3
	c0.3-0.1,0.4-0.4,0.3-0.7c-0.1-0.3-0.4-0.4-0.7-0.3l-28.7,9c0.9-1.6,2-3.1,3.1-4.5l30.5-9.5c0.3-0.1,0.4-0.4,0.3-0.7
	c-0.1-0.3-0.4-0.4-0.7-0.3l-28.8,9c2-2.1,4.2-4,6.6-5.6l15-4.7c0.3-0.1,0.4-0.4,0.3-0.7c0,0,0,0,0-0.1c1.2-0.1,2.4-0.2,3.6-0.2
	c19.1,0,34.7,15.6,34.7,34.7C481.2,77.2,465.6,92.8,446.5,92.8z"/>
<g>
	<g>
		<path class="st2" d="M0.5,73.7c-0.3,0-0.5-0.2-0.5-0.5V0.8c0-0.3,0.2-0.5,0.5-0.5s0.5,0.2,0.5,0.5v72.4
			C1.1,73.5,0.8,73.7,0.5,73.7z"/>
	</g>
	<g>
		<path class="st2" d="M78.5,83.8c-0.3,0-0.5-0.2-0.5-0.5V10.8c0-0.3,0.2-0.5,0.5-0.5c0.3,0,0.5,0.2,0.5,0.5v72.4
			C79.1,83.5,78.8,83.8,78.5,83.8z"/>
	</g>
	<g>
		<path class="st2" d="M150.3,69.9c-0.3,0-0.5-0.2-0.5-0.5V24.7c0-0.3,0.2-0.5,0.5-0.5s0.5,0.2,0.5,0.5v44.6
			C150.9,69.6,150.6,69.9,150.3,69.9z"/>
	</g>
	<g>
		<path class="st2" d="M167.7,129.4c-0.3,0-0.5-0.2-0.5-0.5V17.8c0-0.3,0.2-0.5,0.5-0.5s0.5,0.2,0.5,0.5v111.1
			C168.2,129.2,168,129.4,167.7,129.4z"/>
	</g>
	<g>
		<path class="st2" d="M318.1,146.5c-0.3,0-0.5-0.2-0.5-0.5V0.8c0-0.3,0.2-0.5,0.5-0.5c0.3,0,0.5,0.2,0.5,0.5v145.1
			C318.6,146.2,318.4,146.5,318.1,146.5z"/>
	</g>
	<g>
		<path class="st2" d="M409.7,106.9c-0.3,0-0.5-0.2-0.5-0.5V13.7c0-0.3,0.2-0.5,0.5-0.5c0.3,0,0.5,0.2,0.5,0.5v92.6
			C410.2,106.7,410,106.9,409.7,106.9z"/>
	</g>
	<g>
		<path class="st2" d="M484,68.2c-0.3,0-0.5-0.2-0.5-0.5V0.8c0-0.3,0.2-0.5,0.5-0.5c0.3,0,0.5,0.2,0.5,0.5v66.9
			C484.5,67.9,484.3,68.2,484,68.2z"/>
	</g>
	<g>
		<path class="st2" d="M334.3,143.5c-0.3,0-0.5-0.2-0.5-0.5V13.6c0-0.3,0.2-0.5,0.5-0.5c0.3,0,0.5,0.2,0.5,0.5V143
			C334.9,143.3,334.6,143.5,334.3,143.5z"/>
	</g>
	<g>
		<path class="st2" d="M0.5,163.8c-0.3,0-0.5-0.2-0.5-0.5V90.9c0-0.3,0.2-0.5,0.5-0.5s0.5,0.2,0.5,0.5v72.4
			C1.1,163.6,0.8,163.8,0.5,163.8z"/>
	</g>
	<g>
		<path class="st2" d="M74.6,138.3H18.7c-0.3,0-0.5-0.2-0.5-0.5s0.2-0.5,0.5-0.5h55.9c0.3,0,0.5,0.2,0.5,0.5S74.9,138.3,74.6,138.3z
			"/>
	</g>
	<g>
		<path class="st2" d="M404.9,151.1H349c-0.3,0-0.5-0.2-0.5-0.5s0.2-0.5,0.5-0.5h55.9c0.3,0,0.5,0.2,0.5,0.5
			S405.2,151.1,404.9,151.1z"/>
	</g>
	<g>
		<path class="st2" d="M258.8,122.8h-44.1c-0.3,0-0.5-0.2-0.5-0.5c0-0.3,0.2-0.5,0.5-0.5h44.1c0.3,0,0.5,0.2,0.5,0.5
			C259.3,122.6,259.1,122.8,258.8,122.8z"/>
	</g>
	<g>
		<path class="st2" d="M466.5,96h-44.1c-0.3,0-0.5-0.2-0.5-0.5c0-0.3,0.2-0.5,0.5-0.5h44.1c0.3,0,0.5,0.2,0.5,0.5
			C467.1,95.8,466.8,96,466.5,96z"/>
	</g>
	<g>
		<path class="st2" d="M139,85.5H94.9c-0.3,0-0.5-0.2-0.5-0.5c0-0.3,0.2-0.5,0.5-0.5H139c0.3,0,0.5,0.2,0.5,0.5
			C139.5,85.2,139.3,85.5,139,85.5z"/>
	</g>
</g>
<path class="st0" d="M317.7,113.7c-0.3-0.1-0.5,0.2-0.6,0.5c0,0-0.2,3.8-2.8,6.2c-1.6,1.4-3.8,2-6.6,1.8c-1.9-0.1-3.3-1-4.5-2.3
	c0.1,0,0.3,0,0.4,0.1c0.4,0,0.8,0.1,1.2,0.1c2.8,0,5.1-0.8,7-2.4c3.3-2.9,3.5-7.5,3.6-7.7c0-0.9-0.6-1.6-1.5-1.7
	c-0.9,0-1.6,0.6-1.7,1.5c0,0-0.2,3.4-2.5,5.4c-1.4,1.2-3.4,1.8-5.8,1.6c-1.1-0.1-2.1-0.5-2.9-1.1c-2.4-7.5-1.5-20-0.8-30.1
	c0.4-5.4,0.7-10.1,0.5-13.3c-0.4-5.8-2.1-10.4-5-14c-3.7-8.4-11.8-13.2-23.3-13.5c-5.4-0.1-10.2,1.8-14.3,5.5
	c3.5-20.2,11-40.8,28.5-41.2c0.3,0,0.5-0.2,0.5-0.5s-0.2-0.5-0.5-0.5c-18.7,0.4-26.3,22.5-29.8,43.6c-0.8,0.8-1.5,1.7-2.2,2.6
	c-0.2,0.3-0.5,0.7-0.7,1c2.8-22.3,9.5-49,28.9-49.4c0.9,0,1.6-0.7,1.6-1.6c0-0.9-0.7-1.6-1.6-1.6c-24.8,0.5-30.7,37.2-33,61.4
	c0,0,0,0,0,0c-0.3,3.3-0.6,6.3-0.8,9.1l-0.2,2.5c-0.4,4.5-0.4,8.9-0.5,13.1c-0.2,16.3-0.4,27-15.6,27h0c-3.6,0-6.5-1.2-8.9-3.7
	c-0.2-0.2-0.4-0.5-0.6-0.7c-0.7-1.7-1.4-3.6-1.9-5.7c8-5.7,13.2-15.1,13.2-25.7c0-12.1-6.9-22.7-16.9-28c0.1-2.3,0.1-4.4,0.1-6.1
	c-0.1-4.7-1.8-8.7-5-11.7c-7.6-7.2-21.1-6.9-21.7-6.9c-0.9,0-1.6,0.8-1.5,1.6c0,0.9,0.8,1.6,1.6,1.5c0.1,0,12.7-0.3,19.4,6
	c2.6,2.5,3.9,5.6,4,9.5c0,1.3,0,2.9-0.1,4.6c-3.6-1.4-7.5-2.2-11.6-2.2c-0.7,0-1.4,0-2.1,0.1c-0.7,0-1.4-0.1-2.1-0.1
	c-17.5,0-31.6,14.1-31.6,31.6s14.1,31.6,31.6,31.6c0.7,0,1.4,0,2.1-0.1c0.7,0,1.4,0.1,2.1,0.1c5.2,0,10.2-1.3,14.5-3.5
	c1.1,2.4,2.3,4.5,3.9,6.2c1.2,1.3,2.6,2.3,4.2,3.1c0.2,0.2,0.3,0.4,0.5,0.5c2.7,2.9,6.2,4.4,10.4,4.4h0c17.4,0,17.6-13.5,17.8-29.1
	c0.1-4.2,0.1-8.6,0.5-13l0.2-2.5c0.2-2.7,0.5-5.7,0.8-9c0.3-1,5.5-17.3,20-17.3c0.2,0,0.3,0,0.5,0c5.3,0.1,9.8,1.3,13.4,3.3
	c3.5,3.9,4.8,8.9,5,13.5c0.2,3-0.1,7.7-0.5,13c-1.2,15.9-2.6,35.5,7.5,38.6c1.4,2.1,3.3,3.5,5.9,3.7c0.4,0,0.8,0,1.2,0
	c2.5,0,4.6-0.7,6.3-2.1c3-2.6,3.2-6.7,3.2-6.9C318.3,114,318,113.7,317.7,113.7z M224,79.9c0,5.2-1.6,10-4.3,14.1
	c-0.6-9-0.2-18.9,0.3-27.6C222.6,70.2,224,74.9,224,79.9z M218.8,95.2c-0.3,0.4-0.7,0.8-1,1.2c-1.7-10.5-1.1-23.4-0.5-33.8
	c0.7,0.7,1.3,1.4,1.8,2.2C218.5,74.3,218,85.4,218.8,95.2z M215,99.2c-4.4,3.7-10,5.9-16.2,5.9c-13.9,0-25.2-11.3-25.2-25.2
	s11.3-25.2,25.2-25.2c5.8,0,11.1,2,15.3,5.2C213.5,72.2,212.7,87.3,215,99.2z M208.8,109.9c3.5-1.2,6.8-2.9,9.6-5.2c0,0,0,0,0,0
	c0.2-0.2,0.4-0.3,0.6-0.5c0.2-0.1,0.3-0.2,0.4-0.3c0,0,0,0,0,0c0.1-0.1,0.3-0.2,0.4-0.4c0,0,0,0,0,0c0.4-0.3,0.7-0.6,0.9-0.8
	c0,0,0,0,0,0c5.9-5.7,9.6-13.8,9.6-22.7c0-9-3.8-17.2-9.9-22.9l0,0l0,0c-0.3-0.3-0.6-0.5-0.8-0.8c-0.1-0.1-0.1-0.1-0.2-0.2
	c0,0,0,0,0,0c-3.1-2.7-6.8-4.8-10.8-6.1c14.1,2.7,24.9,15.1,24.9,30c0,10.9-5.8,20.5-14.4,25.9c-0.7,0.4-1.5,0.9-2,1.1c0,0,0,0,0,0
	C214.6,108.3,211.8,109.3,208.8,109.9z M220.4,106.3c0,0,0.1-0.1,0.1-0.1c0.1,0.3,0.2,0.7,0.3,1
	C220.6,106.9,220.5,106.6,220.4,106.3z M275.8,50.1c-11.2,0-17.2,9.2-19.6,14.5c0,0,0,0,0,0c-0.6,1.3-1.4,3.4-1.4,3.4
	c-0.3,3.4-0.6,6.6-0.8,9.4l-0.2,2.5c-0.4,4.5-0.4,8.8-0.5,13.1c-0.2,15.7-0.4,28.1-16.7,28.1h0c-3.3,0-6-1-8.4-2.9
	c1.4,0.4,2.9,0.6,4.5,0.6c0,0,0,0,0,0c18.4,0,18.6-14.7,18.8-30.2c0.1-4.2,0.1-8.5,0.5-12.9l0.2-2.5c0.2-2.7,0.5-5.7,0.8-8.9
	c0.5-1.5,5.5-16.4,19-16.4c0.1,0,0.3,0,0.4,0c6.5,0.2,11.2,1.8,14.6,4.2c-3.1-1.2-6.6-1.8-10.7-1.9C276.2,50.1,276,50.1,275.8,50.1z
	 M297.4,81.2c0.4-5.5,0.7-10.2,0.5-13.4c-0.1-1.9-0.4-3.8-0.8-5.5c1.4,2.8,2.3,6.2,2.6,10c0.2,3.1-0.1,7.8-0.5,13.1
	c-0.7,9.3-1.5,20.6,0.3,28.4C295.5,107.6,296.6,92.8,297.4,81.2z"/>
</svg>
