<?xml version="1.0" encoding="utf-8"?>
<!-- Generator: Adobe Illustrator 19.1.0, SVG Export Plug-In . SVG Version: 6.00 Build 0)  -->
<svg version="1.1" id="圖層_1" xmlns="http://www.w3.org/2000/svg" xmlns:xlink="http://www.w3.org/1999/xlink" x="0px" y="0px"
	 viewBox="0 0 302.2 93.7" style="enable-background:new 0 0 302.2 93.7;" xml:space="preserve">
<style type="text/css">
	.st0{fill:#413D3C;}
	.st1{fill:none;stroke:#231815;stroke-miterlimit:10;}
</style>
<path class="st0" d="M41,69.9v-2.1V56.3V22.8h0c0.1-1.3,0-2.1,0-2.1V0h-2.5l-0.2,20.3c0,0,0.7,13.8-6.7,14
	c-8.7,0.3-7.8-22.2-7.8-22.2L24,0H0c0,39.7,20.6,36.6,31,36.6c3.6,0,5.9-1.7,7.4-4v35.3h0l0,1.7c0,0,0.7,13.8-6.7,14
	C23,83.9,24,69.3,24,69.3v-13H0c0,31.8,20.7,29.3,31,29.4C41.9,85.7,41,69.9,41,69.9z"/>
<path class="st0" d="M249.8,78v-2.1V64.3V30.8h0c0.1-1.3,0-2.1,0-2.1V8h-2.5l-0.2,20.3c0,0,0.7,13.8-6.7,14
	c-8.7,0.3-7.7-14.3-7.7-14.3V8h-24c0,39.7,20.6,36.6,31,36.6c3.6,0,5.9-1.7,7.4-4v35.3h0l0,1.7c0,0,0.7,13.8-6.7,14
	c-8.7,0.3-7.7-14.3-7.7-14.3v-13h-24c0,31.8,20.7,29.3,31,29.4C250.7,93.8,249.8,78,249.8,78z"/>
<path class="st0" d="M71.4,7.7c-12.5,0-22.7,10.2-22.7,22.7s10.2,22.7,22.7,22.7C83.9,53.1,94,42.9,94,30.4S83.9,7.7,71.4,7.7z
	 M75.8,52c-18.6-25.4-2.6-41-0.1-43.2c10.1,2,17.7,10.9,17.7,21.6C93.4,41,85.8,49.9,75.8,52z"/>
<path class="st0" d="M279.2,13.3c-12.7,0-23,10.3-23,23c0,12.7,10.3,23,23,23c12.7,0,23-10.3,23-23
	C302.2,23.6,291.9,13.3,279.2,13.3z M275.1,15l-4.7,1.5C271.9,15.8,273.5,15.3,275.1,15z M279.2,58c-0.1,0-0.1,0-0.2,0l3.1-1
	c0.2-0.1,0.3-0.2,0.2-0.4c-0.1-0.2-0.2-0.3-0.4-0.2l-4.8,1.5c-1.5-0.1-2.9-0.4-4.3-0.9l7.9-2.5c0.2-0.1,0.3-0.2,0.2-0.4
	c-0.1-0.2-0.2-0.3-0.4-0.2l-8.8,2.8c-1-0.4-2-0.8-2.9-1.3l10.5-3.3c0.2-0.1,0.3-0.2,0.2-0.4c-0.1-0.2-0.2-0.3-0.4-0.2l-11,3.5
	c-0.8-0.5-1.5-1-2.2-1.5l12.2-3.8c0.2-0.1,0.3-0.2,0.2-0.4c-0.1-0.2-0.2-0.3-0.4-0.2l-12.6,3.9c-0.6-0.5-1.2-1.1-1.8-1.7l13.4-4.2
	c0.2-0.1,0.3-0.2,0.2-0.4c-0.1-0.2-0.2-0.3-0.4-0.2L263,50.7c-0.5-0.6-1-1.2-1.4-1.8l14.3-4.5c0.2-0.1,0.3-0.2,0.2-0.4
	c-0.1-0.2-0.2-0.3-0.4-0.2l-14.5,4.5c-0.4-0.6-0.8-1.2-1.1-1.9l15.2-4.7c0.2-0.1,0.3-0.2,0.2-0.4c-0.1-0.2-0.2-0.3-0.4-0.2
	l-15.3,4.8c-0.3-0.6-0.6-1.3-0.8-1.9l15.9-5c0.2-0.1,0.3-0.2,0.2-0.4c-0.1-0.2-0.2-0.3-0.4-0.2l-15.9,5c-0.2-0.7-0.4-1.3-0.6-2
	l16.5-5.1c0.2-0.1,0.3-0.2,0.2-0.4c-0.1-0.2-0.2-0.3-0.4-0.2l-16.4,5.1c-0.1-0.7-0.2-1.4-0.3-2.1l16.9-5.3c0.2-0.1,0.3-0.2,0.2-0.4
	c-0.1-0.2-0.2-0.3-0.4-0.2l-16.8,5.2c0-0.5-0.1-1.1-0.1-1.6c0-0.2,0-0.4,0-0.6l17.4-5.5c0.2-0.1,0.3-0.2,0.2-0.4
	c-0.1-0.2-0.2-0.3-0.4-0.2L257.5,35c0-0.8,0.1-1.5,0.3-2.3l18-5.6c0.2-0.1,0.3-0.2,0.2-0.4c-0.1-0.2-0.2-0.3-0.4-0.2L257.9,32
	c0.2-0.8,0.4-1.6,0.6-2.4l18.2-5.7c0.2-0.1,0.3-0.2,0.2-0.4c-0.1-0.2-0.2-0.3-0.4-0.2l-17.8,5.6c0.3-0.9,0.7-1.7,1.1-2.6l18.6-5.8
	c0.2-0.1,0.3-0.2,0.2-0.4c-0.1-0.2-0.2-0.3-0.4-0.2l-18,5.6c0.6-1,1.2-1.9,2-2.8l19.1-6c0.2-0.1,0.3-0.2,0.2-0.4
	c-0.1-0.2-0.2-0.3-0.4-0.2l-18,5.6c1.2-1.3,2.6-2.5,4.1-3.5l9.4-2.9c0.2-0.1,0.3-0.2,0.2-0.4c0,0,0,0,0,0c0.7-0.1,1.5-0.1,2.2-0.1
	c12,0,21.7,9.7,21.7,21.7C300.9,48.3,291.2,58,279.2,58z"/>
<path class="st0" d="M198.7,71.1c-0.2,0-0.3,0.1-0.3,0.3c0,0-0.1,2.4-1.8,3.8c-1,0.9-2.4,1.3-4.1,1.1c-1.2-0.1-2.1-0.6-2.8-1.4
	c0.1,0,0.2,0,0.3,0c0.3,0,0.5,0,0.8,0c1.8,0,3.2-0.5,4.3-1.5c2.1-1.8,2.2-4.7,2.2-4.8c0-0.5-0.4-1-1-1c-0.5,0-1,0.4-1,1
	c0,0-0.1,2.1-1.6,3.4c-0.9,0.8-2.1,1.1-3.6,1c-0.7-0.1-1.3-0.3-1.8-0.7c-1.5-4.7-1-12.5-0.5-18.8c0.2-3.4,0.5-6.3,0.3-8.3
	c-0.2-3.6-1.3-6.5-3.1-8.8c-2.3-5.3-7.4-8.3-14.6-8.5c-3.4-0.1-6.4,1.1-8.9,3.4c2.2-12.6,6.9-25.5,17.8-25.8c0.2,0,0.3-0.2,0.3-0.3
	c0-0.2-0.2-0.3-0.3-0.3c-11.7,0.2-16.5,14.1-18.6,27.2c-0.5,0.5-0.9,1-1.4,1.6c-0.2,0.2-0.3,0.4-0.4,0.6
	c1.8-13.9,5.9-30.7,18.1-30.9c0.6,0,1-0.5,1-1c0-0.6-0.5-1-1-1c-15.5,0.3-19.2,23.3-20.6,38.4c0,0,0,0,0,0c-0.2,2.1-0.3,4-0.5,5.7
	l-0.1,1.6c-0.2,2.8-0.3,5.6-0.3,8.2c-0.1,10.2-0.2,16.9-9.8,16.9c0,0,0,0,0,0c-2.3,0-4.1-0.8-5.5-2.3c-0.1-0.1-0.2-0.3-0.4-0.4
	c-0.5-1.1-0.8-2.3-1.2-3.5c5-3.6,8.3-9.4,8.3-16.1c0-7.6-4.3-14.2-10.6-17.5c0.1-1.4,0.1-2.7,0.1-3.8c-0.1-3-1.1-5.4-3.1-7.3
	c-4.8-4.5-13.2-4.3-13.6-4.3c-0.6,0-1,0.5-1,1c0,0.6,0.5,1,1,1c0.1,0,8-0.2,12.1,3.8c1.6,1.5,2.5,3.5,2.5,5.9c0,0.8,0,1.8,0,2.9
	c-2.2-0.9-4.7-1.4-7.2-1.4c-0.4,0-0.9,0-1.3,0c-0.4,0-0.9,0-1.3,0c-10.9,0-19.8,8.8-19.8,19.8s8.8,19.8,19.8,19.8c0.4,0,0.9,0,1.3,0
	c0.4,0,0.9,0,1.3,0c3.3,0,6.4-0.8,9.1-2.2c0.7,1.5,1.5,2.8,2.5,3.9c0.8,0.8,1.7,1.5,2.6,1.9c0.1,0.1,0.2,0.2,0.3,0.3
	c1.7,1.8,3.9,2.7,6.5,2.7c0,0,0,0,0,0c10.9,0,11-8.4,11.1-18.2c0-2.6,0.1-5.4,0.3-8.1l0.1-1.6c0.1-1.7,0.3-3.6,0.5-5.6
	c0.2-0.6,3.5-10.8,12.5-10.8c0.1,0,0.2,0,0.3,0c3.3,0.1,6.2,0.8,8.4,2.1c2.2,2.4,3,5.6,3.2,8.4c0.1,1.9-0.1,4.8-0.3,8.1
	c-0.7,10-1.6,22.2,4.7,24.1c0.9,1.3,2.1,2.2,3.7,2.3c0.2,0,0.5,0,0.7,0c1.6,0,2.9-0.5,3.9-1.3c1.9-1.7,2-4.2,2-4.3
	C199,71.3,198.9,71.1,198.7,71.1z M140.1,49.9c0,3.3-1,6.3-2.7,8.8c-0.4-5.6-0.1-11.8,0.2-17.3C139.2,43.9,140.1,46.8,140.1,49.9z
	 M136.8,59.6c-0.2,0.3-0.4,0.5-0.6,0.8c-1-6.5-0.7-14.6-0.3-21.2c0.4,0.4,0.8,0.9,1.2,1.4C136.6,46.5,136.3,53.4,136.8,59.6z
	 M134.4,62c-2.7,2.3-6.3,3.7-10.1,3.7c-8.7,0-15.8-7.1-15.8-15.8s7.1-15.8,15.8-15.8c3.6,0,6.9,1.2,9.6,3.3
	C133.5,45.1,133,54.6,134.4,62z M130.5,68.7c2.2-0.7,4.2-1.8,6-3.2c0,0,0,0,0,0c0.1-0.1,0.3-0.2,0.4-0.3c0.1-0.1,0.2-0.2,0.3-0.2
	c0,0,0,0,0,0c0.1-0.1,0.2-0.2,0.3-0.2c0,0,0,0,0,0c0.2-0.2,0.4-0.4,0.6-0.5c0,0,0,0,0,0c3.7-3.6,6-8.6,6-14.2
	c0-5.6-2.4-10.7-6.2-14.3l0,0l0,0c-0.2-0.2-0.3-0.3-0.5-0.5c0,0-0.1-0.1-0.1-0.1c0,0,0,0,0,0c-1.9-1.7-4.2-3-6.7-3.8
	c8.8,1.7,15.5,9.4,15.5,18.8c0,6.8-3.6,12.8-9,16.2c-0.4,0.3-0.9,0.5-1.3,0.7c0,0,0,0,0,0C134.2,67.7,132.4,68.3,130.5,68.7z
	 M137.8,66.5C137.8,66.5,137.9,66.4,137.8,66.5c0.1,0.2,0.2,0.4,0.2,0.6C138,66.9,137.9,66.7,137.8,66.5z M172.5,31.3
	c-7,0-10.7,5.8-12.3,9.1c0,0,0,0,0,0c-0.4,0.8-0.9,2.1-0.9,2.1c-0.2,2.1-0.4,4.1-0.5,5.9l-0.1,1.6c-0.2,2.8-0.3,5.5-0.3,8.2
	c-0.1,9.8-0.2,17.6-10.5,17.6c0,0,0,0,0,0c-2,0-3.8-0.6-5.2-1.8c0.9,0.2,1.8,0.4,2.8,0.4c0,0,0,0,0,0c11.5,0,11.7-9.2,11.8-18.9
	c0-2.6,0.1-5.3,0.3-8.1l0.1-1.6c0.1-1.7,0.3-3.5,0.5-5.6c0.3-0.9,3.5-10.3,11.9-10.3c0.1,0,0.2,0,0.3,0c4.1,0.1,7,1.1,9.1,2.6
	c-1.9-0.7-4.1-1.1-6.7-1.2C172.7,31.3,172.6,31.3,172.5,31.3z M186,50.8c0.2-3.4,0.5-6.4,0.3-8.4c-0.1-1.2-0.3-2.4-0.5-3.4
	c0.9,1.8,1.5,3.9,1.6,6.2c0.1,1.9-0.1,4.9-0.3,8.2c-0.4,5.8-0.9,12.9,0.2,17.8C184.8,67.3,185.5,58,186,50.8z"/>
</svg>
